<?xml version="1.0" standalone="no"?>
<!DOCTYPE svg PUBLIC "-//W3C//DTD SVG 20010904//EN"
 "http://www.w3.org/TR/2001/REC-SVG-20010904/DTD/svg10.dtd">
<svg version="1.0" xmlns="http://www.w3.org/2000/svg"
 width="119.000000pt" height="119.000000pt" viewBox="0 0 119.000000 119.000000"
 preserveAspectRatio="xMidYMid meet">
<metadata>
Created by potrace 1.14, written by Peter Selinger 2001-2017
</metadata>
<g transform="translate(0.000000,119.000000) scale(0.100000,-0.100000)"
fill="#000000" stroke="none">
<path d="M525 1180 c-206 -32 -401 -223 -440 -432 -5 -24 -13 -38 -26 -41 -17
-5 -19 -15 -19 -117 0 -102 2 -112 19 -117 14 -3 26 -24 40 -71 38 -125 135
-254 244 -324 143 -92 363 -91 510 1 106 68 188 175 233 308 19 54 35 83 48
89 19 8 21 19 24 117 3 105 2 107 -21 116 -18 7 -26 20 -30 49 -9 52 -77 187
-121 238 -23 27 -33 48 -30 61 7 27 -110 111 -130 93 -11 -8 -28 -6 -73 8 -71
24 -161 32 -228 22z"/>
</g>
</svg>
